<svg width="63" height="100" viewBox="0 0 63 100" fill="none" xmlns="http://www.w3.org/2000/svg">
<path d="M58.5 27.5V72.5C58.5 87.4117 46.4117 99.5 31.5 99.5C16.5883 99.5 4.5 87.4117 4.5 72.5V27.5C4.5 12.5883 16.5883 0.5 31.5 0.5C46.4117 0.5 58.5 12.5883 58.5 27.5Z" stroke="white"/>
<mask id="path-2-inside-1_635_95" fill="white">
<path d="M0 63C0 62.4477 0.447715 62 1 62H62C62.5523 62 63 62.4477 63 63V74C63 74.5523 62.5523 75 62 75H1C0.447715 75 0 74.5523 0 74V63Z"/>
</mask>
<path d="M1 63H62V61H1V63ZM62 63V74H64V63H62ZM62 74H1V76H62V74ZM1 74V63H-1V74H1ZM1 74L1 74H-1C-1 75.1046 -0.10457 76 1 76V74ZM62 74L62 74V76C63.1046 76 64 75.1046 64 74H62ZM62 63L62 63H64C64 61.8954 63.1046 61 62 61V63ZM1 61C-0.104569 61 -1 61.8954 -1 63H1L1 63V61Z" fill="white" mask="url(#path-2-inside-1_635_95)"/>
<mask id="path-4-inside-2_635_95" fill="white">
<path d="M0 23C0 22.4477 0.447715 22 1 22H62C62.5523 22 63 22.4477 63 23V34C63 34.5523 62.5523 35 62 35H1C0.447715 35 0 34.5523 0 34V23Z"/>
</mask>
<path d="M1 23H62V21H1V23ZM62 23V34H64V23H62ZM62 34H1V36H62V34ZM1 34V23H-1V34H1ZM1 34L1 34H-1C-1 35.1046 -0.10457 36 1 36V34ZM62 34L62 34V36C63.1046 36 64 35.1046 64 34H62ZM62 23L62 23H64C64 21.8954 63.1046 21 62 21V23ZM1 21C-0.104569 21 -1 21.8954 -1 23H1L1 23V21Z" fill="white" mask="url(#path-4-inside-2_635_95)"/>
<mask id="path-6-inside-3_635_95" fill="white">
<path d="M0 43C0 42.4477 0.447715 42 1 42H62C62.5523 42 63 42.4477 63 43V54C63 54.5523 62.5523 55 62 55H1C0.447715 55 0 54.5523 0 54V43Z"/>
</mask>
<path d="M1 43H62V41H1V43ZM62 43V54H64V43H62ZM62 54H1V56H62V54ZM1 54V43H-1V54H1ZM1 54L1 54H-1C-1 55.1046 -0.10457 56 1 56V54ZM62 54L62 54V56C63.1046 56 64 55.1046 64 54H62ZM62 43L62 43H64C64 41.8954 63.1046 41 62 41V43ZM1 41C-0.104569 41 -1 41.8954 -1 43H1L1 43V41Z" fill="white" mask="url(#path-6-inside-3_635_95)"/>
<circle cx="3" cy="28" r="1" fill="white"/>
<circle cx="60" cy="28" r="1" fill="white"/>
<circle cx="3" cy="48" r="1" fill="white"/>
<circle cx="60" cy="48" r="1" fill="white"/>
<circle cx="3" cy="68" r="1" fill="white"/>
<circle cx="60" cy="68" r="1" fill="white"/>
</svg>
