<svg width="1104" height="4123" viewBox="0 0 1104 4123" fill="none" xmlns="http://www.w3.org/2000/svg">
<path d="M2.02168 0V1060.5C2.02168 1065.17 3.42168 1076.8 9.02168 1086C11.5217 1089.83 18.4217 1098.6 26.0217 1103C30.0217 1105.33 40.8217 1110 52.0217 1110H1052.52C1057.69 1110 1070.22 1111.6 1079.02 1118C1082.69 1120.33 1091.12 1127.1 1095.52 1135.5C1097.86 1139.5 1102.42 1149.9 1102.02 1159.5V2751.5C1102.19 2755.5 1101.62 2765.4 1098.02 2773C1096.02 2777 1090.22 2786.5 1083.02 2792.5C1078.19 2796 1065.62 2803 1054.02 2803H51.5217C47.355 2803 37.1217 2804.1 29.5217 2808.5C25.1884 2810.67 15.1217 2817.4 9.52168 2827C6.85502 2831 1.62168 2841.5 2.02168 2851.5V4123" stroke="#999999" stroke-width="3"/>
</svg>
