<svg width="100" height="44" viewBox="0 0 100 44" fill="none" xmlns="http://www.w3.org/2000/svg">
<rect x="21.6104" y="2.5401" width="57.4174" height="40.1922" rx="20.0961" fill="#4F4F4F"/>
<path d="M43.3796 20.6877C43.8549 18.2718 44.2863 15.9332 45.8367 13.9382C46.3034 13.3377 47.1228 12.5715 47.8349 13.3166C49.0678 14.6066 49.9329 16.8353 50.2179 18.5711C50.3078 19.1187 50.6135 20.7505 49.7591 20.9245C49.0957 21.0597 48.0811 19.8594 47.7165 19.474C46.732 18.4337 45.5658 17.1515 45.2298 15.7144C44.6204 13.1076 48.4423 11.9133 49.8849 13.8494C51.2467 15.6772 51.5877 19.104 49.4408 20.4435C47.7163 21.5195 45.0006 21.9532 43.0614 21.2576C41.224 20.5985 41.1405 17.5823 41.8995 16.0697C42.6957 14.4827 44.4614 13.529 46.0069 12.8651C48.0831 11.9733 50.37 11.4418 52.6305 11.348C53.9323 11.294 55.3295 11.3886 56.2791 12.3915C57.1713 13.3338 57.6027 14.7349 57.9443 15.9512C58.7964 18.9859 58.4424 21.961 55.2208 23.3668C53.4903 24.1219 51.4928 24.2028 49.6406 24.2475C48.252 24.2809 46.0453 24.5537 44.771 23.7738C43.7493 23.1486 43.9714 20.9971 44.1049 20.029C44.376 18.0635 45.8858 16.9535 47.7387 16.5433C49.3957 16.1765 52.0009 16.0698 53.2818 17.424C54.7508 18.9769 54.7332 22.1828 54.7028 24.1513C54.6595 26.9468 53.7089 29.2962 51.3132 30.9007C49.1487 32.3504 46.126 33.1122 43.5276 33.0469C42.2334 33.0144 41.7732 32.4276 41.411 31.2264C40.7452 29.0181 40.613 25.9032 42.5137 24.2401C43.6327 23.261 45.8225 22.5623 47.228 23.3002C49.028 24.2452 49.9744 27.0699 50.4991 28.8803C51.0027 30.6176 51.0761 32.8409 49.9071 34.3347C48.0957 36.6493 44.7337 37.8407 41.8847 37.9758C40.4221 38.0452 39.3746 37.7187 38.658 36.3921C37.7168 34.65 36.9274 32.5189 36.7042 30.5455C36.4727 28.4996 37.2328 26.2949 39.2944 25.5278C40.7472 24.9872 42.9645 24.713 44.1641 25.9126C45.8098 27.5583 47.169 32.053 44.8968 33.676C42.0813 35.687 37.9164 34.0878 35.8531 31.7666C35.3458 31.196 35.3834 30.0331 35.3276 29.3318C35.2539 28.4053 35.1489 27.4015 35.8753 26.6971C36.6312 25.9641 38.6188 25.6539 39.6497 25.883C39.8127 25.9193 40.262 27.4893 40.0197 27.6888C39.6218 28.0165 38.3379 26.7321 38.1399 26.4751C37.7519 25.9712 37.5182 25.4716 37.5182 24.8395C37.5182 23.8577 37.5182 22.8759 37.5182 21.894C37.5182 21.3018 37.5182 21.8451 37.5182 22.1457C37.5182 24.9061 37.5182 33.1876 37.5182 30.4271C37.5182 28.0342 37.5182 25.6413 37.5182 23.2484C37.5182 21.9458 37.5182 20.6433 37.5182 19.3408C37.5182 19.2618 37.5182 19.1829 37.5182 19.104C37.5182 19.0793 37.5182 19.1533 37.5182 19.178C37.5182 19.9501 37.5182 20.7223 37.5182 21.4944C37.5182 23.833 37.5182 26.1717 37.5182 28.5103C37.5182 29.8582 37.5182 27.9507 37.5182 27.6814C37.5182 25.7103 37.5182 23.7393 37.5182 21.7682C37.5182 19.2421 37.5182 16.716 37.5182 14.1899C37.5182 12.7665 37.5182 17.0367 37.5182 18.4601C37.5182 20.2141 37.5182 25.476 37.5182 23.722C37.5182 22.3504 37.5182 20.9788 37.5182 19.6072C37.5182 18.4913 37.7703 18.3809 38.7616 17.8606C39.6503 17.3942 40.4334 17.1587 41.4258 17.017C43.3892 16.7365 44.1506 18.4103 44.4971 20.1697C44.634 20.8646 44.9137 21.9936 44.5563 22.6637C44.1538 23.4184 42.4144 23.0919 41.8107 22.9893C39.3336 22.5684 36.3127 21.4099 34.6616 19.4148C33.4474 17.9477 33.0646 14.8834 34.2027 13.2722C35.1342 11.9534 36.9625 11.318 38.3841 10.7855C40.4229 10.0219 42.5432 9.4072 44.697 9.06856C46.8854 8.72446 48.9995 8.5492 50.1291 10.7411C51.4116 13.2297 52.542 17.0499 51.8313 19.8588C51.4417 21.3984 50.0983 22.2811 48.76 22.9301C45.4334 24.5434 41.6022 24.2256 38.0289 23.9218C35.2478 23.6854 32.1529 23.4515 29.5847 22.2123C28.6142 21.744 27.855 20.9587 27.468 19.9624C26.8041 18.2527 27.3856 16.7178 28.8594 15.6774C31.0545 14.1279 34.3143 13.3044 36.9558 13.1982C39.1382 13.1104 40.9241 13.5691 41.7071 15.6848C43.3072 20.0091 42.6871 26.3553 37.2962 27.4964C35.8245 27.8079 33.4872 28.1112 32.0713 27.4076C30.3075 26.531 29.524 24.4613 30.1767 22.6119C31.178 19.775 35.228 18.6387 37.7995 17.9716C39.1711 17.6158 42.5498 16.6782 43.6535 18.2233C43.8858 18.5486 43.8818 19.1072 43.9125 19.474C43.9974 20.4884 44.0563 21.5203 44.0013 22.5379C43.8751 24.8732 42.8011 26.9218 40.4341 27.6C38.0846 28.2732 33.9875 28.2202 32.5598 25.9126C31.6391 24.4248 31.4591 22.5144 32.5449 21.0429C33.389 19.8991 34.6701 19.3293 35.9641 18.8671C37.583 18.2889 39.3255 17.7746 41.0336 17.5424C42.3509 17.3634 42.4233 17.7076 42.8098 18.9707C43.2609 20.4451 43.622 21.9446 43.8533 23.4704C44.1182 25.2181 44.4914 27.2778 44.1123 29.0431C43.6077 31.3933 40.5413 31.9031 38.5617 31.9738C36.0438 32.0638 33.6495 31.8305 31.9825 29.7388C29.0144 26.0147 28.8128 19.4745 32.5375 16.2399C33.6223 15.2979 34.5227 14.8519 35.446 16.1215C37.419 18.8343 38.869 22.331 39.6793 25.5722C40.4589 28.6906 39.1417 31.1611 36.3637 32.7213C35.3528 33.2891 34.2312 33.6082 33.0778 33.713C32.5529 33.7607 31.6921 33.8988 31.1906 33.6612C30.327 33.2521 30.2309 31.6239 30.5764 30.8785C31.1694 29.5989 34.0668 29.1733 35.2388 29.7314C36.5017 30.3328 37.5483 31.1021 38.3175 32.2773C39.0217 33.353 38.8504 34.4928 38.8504 35.7334C38.8504 36.1366 38.7798 37.6179 38.2953 37.739C36.8843 38.0918 35.5448 38.2869 34.0991 38.2719C32.6771 38.2571 31.8116 37.7785 30.7836 36.8065C29.9487 36.0172 29.6388 34.5824 29.6809 33.4466C29.7661 31.1446 31.87 31.1669 33.6921 30.9525C34.515 30.8557 35.1935 31.2846 35.7569 31.848C37.4885 33.5796 38.8275 36.8881 37.3924 39.1303C36.597 40.3732 35.0927 40.0036 33.7587 40.0036C32.6669 40.0036 30.8508 40.3948 30.1323 39.4116C29.5896 38.6689 28.9443 38.3171 28.667 37.406C28.4115 36.5667 28.3464 35.4733 28.4745 34.6085C28.6648 33.3242 30.5579 33.2306 31.5533 33.1061C32.5421 32.9825 33.9574 33.0766 34.7208 33.8018C35.5731 34.6115 35.4304 36.0802 35.3794 37.1247C35.3569 37.5863 35.3685 37.9835 34.8466 38.0646C33.9666 38.2015 33.048 38.1387 32.1601 38.1387C31.419 38.1387 30.5326 37.6254 30.0583 37.0433C29.1401 35.9165 28.0411 34.8001 27.3274 33.528C25.2522 29.8286 28.9946 26.3443 32.5968 26.031C34.1928 25.8923 35.8379 26.2648 36.719 27.7406C37.8065 29.5622 38.3418 31.7178 36.867 33.4318C35.6216 34.8792 32.7289 35.0865 30.9612 35.2746C29.9202 35.3853 26.8638 36.0696 26.1655 34.9415C25.9126 34.533 25.5619 34.1923 25.3218 33.7722C25.0343 33.2691 25.0374 32.7289 24.937 32.1737C24.7284 31.0204 24.5956 29.9628 25.0184 28.8211C25.6351 27.1561 27.4063 26.1616 29.1036 26.031C29.7945 25.9779 30.5289 25.9804 31.2202 26.0236C32.1481 26.0816 33.1941 27.1433 33.8623 27.7184C34.9858 28.6855 35.186 29.503 35.3572 30.9155C35.4022 31.2866 35.5002 31.9684 35.1352 32.2181C34.4016 32.72 33.2029 32.8256 32.3451 32.8027C30.751 32.7602 29.3277 32.1731 27.8825 31.5372C27.2529 31.2602 26.8036 30.7675 26.1507 30.4715C25.4776 30.1664 24.7933 29.7506 24.2561 29.2134C23.7624 28.7197 23.6189 27.6707 23.3976 27.0523C23.0439 26.0638 22.5634 24.2381 23.1164 23.2632C23.7842 22.0857 25.6476 20.9871 26.9352 20.6359C28.4499 20.2228 31.1142 20.6272 32.3673 21.5462C32.944 21.9691 33.2089 22.6722 33.5663 23.2632C33.8041 23.6565 34.5371 23.4947 34.9576 23.4852C36.0654 23.46 35.6508 22.7992 34.595 23.0411C33.7735 23.2294 32.924 23.7862 32.1823 24.1661C31.6194 24.4544 30.9167 25.0838 30.2507 25.0838C29.7637 25.0838 29.2808 24.9873 28.8076 24.8765C28.1406 24.7204 27.6696 24.223 26.9944 24.0773C25.9073 23.8425 24.9011 23.6439 23.8565 23.2188C22.8099 22.7928 22.4955 21.9313 21.9323 21.0059C21.4655 20.239 21.5327 19.0719 21.5327 18.2085C21.5327 16.1247 22.7546 14.9036 24.0045 13.3906C24.5023 12.788 25.1392 12.7095 25.9287 12.6949C26.2198 12.6895 26.5736 12.6426 26.8612 12.6949C27.5843 12.8264 28.1034 15.1204 28.3117 15.67C28.8495 17.0893 28.9926 18.2638 28.9926 19.7404C28.9926 20.1136 28.6625 20.2366 28.3413 20.3399C27.4184 20.6365 26.6726 19.3467 26.2839 18.7191C25.2497 17.0492 25.2243 14.8313 25.2626 12.9169C25.2907 11.5116 25.7624 10.5566 26.7872 9.63102C27.8892 8.63567 28.7548 7.64782 30.3099 7.31459C31.4241 7.07583 33.2331 6.97411 34.2323 7.52921C35.6469 8.31508 36.8606 9.79184 37.4146 11.2888C37.7764 12.2664 38.5291 14.2944 37.1926 14.8411C35.9516 15.3488 34.4872 15.8364 33.6477 14.6191C32.8866 13.5156 32.3415 12.1266 32.3229 10.7707C32.3076 9.64951 32.0556 8.09008 32.5153 7.05556C32.9561 6.06378 34.0212 5.54679 35.002 5.30159C36.2252 4.99579 37.5382 5.06541 38.7838 5.17577C39.8495 5.27021 40.8606 5.49083 41.7293 6.15267C42.5777 6.79911 42.7573 8.11474 42.8912 9.09816C43.2056 11.4079 43.0645 13.2496 40.5377 13.9234C38.2875 14.5235 33.176 15.5418 31.531 13.0058C30.642 11.6351 29.8256 8.24275 31.2498 6.90754C33.3483 4.94025 36.7745 4.06586 39.5756 4.03606C40.6312 4.02483 41.6875 4.03606 42.7432 4.03606C43.6121 4.03606 44.5968 3.8913 45.3778 4.36169C46.7715 5.20107 47.7444 7.36615 48.1013 8.89094C48.3718 10.0467 48.6725 11.2264 47.3094 11.6736C45.4653 12.2787 42.7316 12.1235 42.0771 9.94185C41.465 7.9016 41.6522 5.56109 43.7497 4.49491C45.5002 3.60504 46.9884 3.63642 48.9006 3.63642C49.7997 3.63642 50.726 3.57474 51.624 3.64382C52.2097 3.68887 52.7004 4.19178 53.1708 4.49491C53.702 4.83726 54.3194 5.14144 54.7028 5.66422C55.3807 6.58867 55.5294 7.99247 55.6352 9.09816C55.7676 10.4805 56.3944 13.5504 54.4363 13.8642C53.1155 14.0759 51.3653 14.2663 50.0403 13.9974C49.3417 13.8557 49.001 12.2466 48.8636 11.6884C48.6494 10.8182 48.7082 9.90521 48.7082 9.01675C48.7082 8.29212 48.6243 7.52651 49.0486 6.90014C49.7256 5.90082 50.3637 4.83919 51.4908 4.30249C53.5169 3.3377 55.9684 3.30581 58.1071 3.76963C59.1346 3.99246 60.1189 4.04335 61.0378 4.62812C62.2154 5.37752 63.0189 6.57969 63.5244 7.85484C64.1719 9.488 64.689 10.9137 64.5531 12.6801C64.488 13.527 63.1485 13.7606 62.5327 13.953C61.0738 14.4089 59.5161 14.7671 57.9813 14.8041C56.2747 14.8453 54.9183 14.6493 54.7324 12.7689C54.4521 9.93518 54.9879 7.60174 57.8407 6.4413C59.3394 5.83166 60.7946 5.49392 62.3921 5.36079C62.9149 5.31722 63.3811 5.12142 63.9389 5.10917C64.8065 5.0901 65.6761 5.09751 66.5439 5.10177C67.1345 5.10466 67.6931 5.02243 68.1425 5.4718C69.2167 6.54598 69.5925 7.99502 70.2295 9.30538C70.6608 10.1926 71.2801 11.4031 71.347 12.4063C71.4395 13.7933 70.6703 14.0114 69.2896 14.2713C66.8726 14.7262 63.1775 13.7622 62.5623 11.0964C62.4028 10.4049 62.0512 8.59012 62.8584 8.13607C63.6717 7.67856 64.9618 7.82687 65.8483 7.79563C66.8078 7.76182 67.8469 7.66658 68.8086 7.77343C69.9984 7.90564 70.9558 8.99393 72.0501 9.40899C72.9729 9.75902 73.8626 11.0944 74.2851 11.9696C75.006 13.463 75.4219 15.0591 75.5506 16.7061C75.7039 18.6684 75.8267 20.5541 73.4562 20.9985C72.3743 21.2014 71.1345 21.1184 70.0519 20.9985C68.8698 20.8677 66.8403 20.7448 66.1147 19.5924C64.8586 17.5974 65.5546 14.8711 67.0842 13.287C68.5254 11.7943 71.0775 11.9468 72.99 12.0437C74.2321 12.1065 76.2533 12.7173 76.8161 13.9234C77.698 15.8131 78.5479 17.8459 78.5479 19.955C78.5479 21.6341 78.821 23.5924 78.2149 25.1874C77.4194 27.2808 75.0232 27.816 72.9974 27.9848C71.736 28.09 70.7224 27.4098 70.6883 26.0458C70.6508 24.5461 70.7564 24.1796 72.2795 24.5657C73.6296 24.908 75.0549 25.1717 76.3351 25.735C76.921 25.9928 77.0965 26.5156 77.3416 27.0671C77.7646 28.0189 77.6424 29.1227 77.6154 30.1459C77.5763 31.6311 76.4871 33.3482 75.3508 34.2607C74.2764 35.1234 73.0537 35.7853 71.68 35.9776C70.8848 36.089 69.1303 36.4733 68.3793 35.9776C67.8018 35.5965 67.8685 33.9656 67.8909 33.3874C67.928 32.4296 68.72 31.6272 69.4894 31.1376C70.4746 30.5106 72.521 30.6436 73.0862 31.774C73.6441 32.8899 73.6868 34.3326 73.0936 35.4078C72.8398 35.8677 72.5582 35.9264 72.1463 36.2293C71.4292 36.7565 70.922 37.4924 70.1851 38.0054C69.0268 38.8119 67.7365 39.2396 66.2923 39.0711C65.5299 38.9822 64.7931 38.0229 64.3681 37.4578C63.7724 36.6658 63.2778 35.5967 63.5466 34.5789C64.2298 31.9925 67.355 32.3801 69.3414 32.7139C71.6021 33.0939 72.1537 34.6969 72.1537 36.8065C72.1537 37.5163 72.2979 38.2216 71.68 38.7159C70.8425 39.3859 69.7463 39.7463 68.7493 40.0924C66.6506 40.8212 64.4981 41.4288 62.3033 41.7946C61.116 41.9925 58.335 42.0761 58.1959 40.4625C58.0893 39.2256 58.1488 37.8904 59.01 36.9101C59.7831 36.0301 61.472 36.1586 62.5179 36.0664C63.482 35.9815 63.8769 35.9496 64.2645 36.9101C64.7304 38.0649 65.0451 39.3102 64.8862 40.5587C64.6767 42.2043 61.8407 42.8023 60.4605 42.6531C59.0445 42.5 57.3127 42.366 55.9683 41.8538C54.8643 41.4333 54.6309 39.8209 55.0062 38.8639C55.7603 36.9409 59.1446 34.8551 61.1562 36.0516C62.7636 37.0078 62.969 39.4848 61.3634 40.5513C59.2343 41.9655 56.8686 41.6022 54.4363 41.6022C53.5042 41.6022 52.4275 41.754 51.5204 41.5208C51.0511 41.4001 50.6513 40.5382 50.4473 40.1813C49.9511 39.3129 49.7599 38.2889 50.0107 37.3024C50.2984 36.1706 51.9082 35.6331 52.9414 35.504C54.7517 35.2777 56.5581 36.471 57.145 38.2127C57.6409 39.6844 57.1881 41.1608 55.613 41.395C53.9418 41.6434 52.242 41.6531 50.5805 41.9352C49.6688 42.0901 47.9732 42.5299 47.1096 42.0462C45.9865 41.4173 45.8482 38.6621 46.1031 37.5762C46.6427 35.2771 50.1691 35.9024 51.6314 36.6881C52.8586 37.3474 53.7013 40.0587 52.749 41.2396C52.1459 41.9873 50.702 41.9549 49.8775 42.0684C48.2532 42.2921 46.631 42.4372 44.993 42.5051C43.977 42.5472 42.5796 42.7883 41.6183 42.3571C39.5774 41.4417 37.3711 40.5919 35.4608 39.4264C34.5914 38.8959 34.8521 36.6591 35.8457 36.3329C36.2942 36.1856 36.9619 36.2737 37.4072 36.2737C38.3576 36.2737 39.3258 36.2433 40.2713 36.3625C41.1586 36.4744 42.4015 36.8042 42.8764 37.665C43.18 38.2153 43.2464 38.8541 43.2464 39.4708C43.2464 40.5903 42.7827 40.8927 41.6701 41.1211C41.1115 41.2359 38.1876 41.9409 37.7847 41.321C37.3837 40.7042 37.3038 39.6758 37.2074 38.9823C37.0386 37.7674 36.9503 36.5163 37.2 35.3042C38.1335 30.7732 42.5481 28.3262 46.7248 27.3484C48.6093 26.9072 50.5936 26.7357 52.5269 26.7119C54.0639 26.693 55.6066 26.8445 56.6269 28.1477C57.5617 29.3415 58.4938 32.4053 57.663 33.8758C57.1776 34.735 55.9471 35.1203 55.0876 35.3486C53.3645 35.8063 51.4962 35.8993 49.7295 35.6668C47.0189 35.3101 43.242 33.702 43.8977 30.2791C44.2703 28.3339 45.8349 27.0967 47.524 26.2679C52.1599 23.993 57.8574 23.1806 62.9768 23.167C64.1429 23.1639 66.2223 23.1103 67.0028 24.3437C67.7616 25.5429 67.7544 27.5675 67.8539 28.8951C68.0869 32.006 68.3158 35.7426 64.4939 36.5919C60.3645 37.5096 57.4888 34.5313 56.2791 30.9303C55.726 29.2838 55.2799 27.3901 56.1237 25.735C57.3698 23.2907 60.4008 21.7692 62.9916 21.339C64.7693 21.0438 66.5351 21.2881 67.7206 22.7525C68.7924 24.0764 69.2541 26.107 69.223 27.7776C69.1893 29.5837 68.5587 31.2781 66.5439 31.5594C63.9396 31.923 60.9727 30.4905 59.158 28.7101C57.6338 27.2147 56.4458 24.7986 57.6038 22.7377C58.6431 20.8882 61.118 20.0961 63.0064 19.5776C64.4161 19.1905 66.4531 18.6957 67.9427 19.0744C69.354 19.4332 69.3474 21.6884 69.2822 22.7821C69.0245 27.1038 65.5327 29.446 61.356 29.0283C59.8804 28.8808 58.1565 28.3424 57.4558 26.8747C56.8071 25.5159 57.2244 23.7825 58.0553 22.6193C59.8989 20.0382 64.6418 18.338 67.6836 19.6072C70.8904 20.9453 68.9815 26.1228 66.7808 27.4816C63.2271 29.6756 58.8321 26.5045 56.3901 24.0625C53.9473 21.6196 53.1277 17.2069 56.5233 15.0928C59.5811 13.189 66.335 12.0993 68.8678 15.5072C69.9093 16.9086 69.6506 18.9594 69.1416 20.4805C68.2147 23.2504 66.0731 25.1582 63.1544 25.5796C58.8389 26.2026 54.4697 23.4999 51.587 20.5027C49.0796 17.8957 49.1311 13.9496 52.6157 12.1843C53.9593 11.5036 55.9203 11.0754 57.4114 11.5552C58.7339 11.9807 59.471 13.3446 59.9943 14.5081C61.5051 17.8673 62.3927 22.5754 61.3116 26.1791C59.8032 31.2072 52.7886 31.5346 48.4935 31.0783C46.3553 30.8512 43.9556 30.2393 42.4471 28.5621C41.3401 27.3312 41.2323 25.5666 41.4036 24.018C41.6102 22.1519 42.2169 20.1896 43.8533 19.0596C45.4721 17.9416 47.7988 17.7464 49.6703 18.1123C53.8879 18.9368 55.3716 23.1997 55.4132 27.0375C55.4308 28.6548 54.589 31.9727 52.1865 31.0191C51.3125 30.6723 50.7251 29.6148 51.5722 28.8359C53.7059 26.8741 57.838 26.5154 60.5197 26.3567C62.4098 26.2448 68.8766 26.5384 66.8992 30.2791C66.2005 31.6007 64.7662 32.3693 63.4356 32.8841C62.1884 33.3668 59.6493 34.2438 58.4253 33.1728C56.5584 31.5392 59.3447 29.2331 60.801 28.7989C62.0834 28.4166 65.3035 28.1289 64.9824 30.3309C64.5896 33.0244 60.7735 34.0369 58.5289 34.0682C57.2272 34.0864 55.5391 33.8247 54.5547 32.8545C53.2037 31.5229 54.3591 29.3755 55.428 28.3253C56.6779 27.0974 58.354 26.3413 59.9943 25.809C60.4569 25.6589 61.5125 25.3856 61.4522 25.8682C61.3276 26.8651 59.8804 27.5515 59.1432 27.8516C57.1064 28.6807 55.0208 28.5482 52.897 28.1181C49.7982 27.4904 46.543 26.5019 43.7793 24.9357C42.1286 24.0003 40.8198 22.7349 40.1085 20.9541C39.1806 18.6312 39.407 15.8323 38.9318 13.3832C38.6273 11.8139 37.3961 10.6301 37.0076 9.07596C36.0204 5.12732 40.8784 3.04133 44.0013 2.97035C44.9971 2.94772 46.0186 3.47772 46.9024 3.87324C47.8809 4.31116 48.9866 4.94961 49.5074 5.93065C49.7132 6.31831 50.0799 6.82994 50.0403 7.29238C49.9308 8.56965 47.737 8.68105 46.821 8.75033C45.8216 8.82591 43.2356 9.31224 42.6544 8.17307C42.0222 6.93405 42.1179 5.09898 42.9282 3.96945C43.8449 2.6916 45.4566 2.32229 46.9172 2.11187C48.8439 1.83429 50.5171 1.87724 52.3789 2.4079C53.7893 2.80989 55.2572 3.14235 56.3013 4.25808C57.0319 5.03885 57.2506 6.36159 57.3374 7.38119C57.3808 7.891 57.6083 8.75147 56.9082 8.80213C55.4295 8.90914 53.8827 8.84709 52.4085 8.78733C51.0429 8.73197 47.9644 8.95341 47.0356 7.52921C45.9443 5.85593 48.2766 4.5914 49.4482 4.10267C51.9945 3.04051 54.6355 2.57071 57.3818 2.57071C58.7402 2.57071 60.0083 2.58754 61.282 3.11097C62.742 3.71097 63.5128 4.69952 64.1313 6.16747C64.5815 7.23597 64.6257 9.04735 64.4273 10.2379C64.3051 10.9714 61.2093 10.8908 60.801 10.9039C59.3743 10.95 57.9696 10.8551 56.5751 10.5413C55.8317 10.374 54.6907 10.2008 54.5251 9.29798C54.2129 7.59513 54.8268 6.56242 56.2125 5.59021C57.0318 5.01539 58.5219 3.85969 59.6094 3.80664C61.1982 3.72914 62.8996 5.12998 63.9093 6.18967C65.788 8.16139 66.6996 12.0356 64.4421 14.1751C62.8321 15.701 59.9792 15.7174 57.9739 15.744C54.2937 15.7929 50.5298 15.4021 46.9764 14.4119C45.867 14.1027 42.5998 13.2643 42.2399 11.681C41.8684 10.0463 46.4132 9.81696 46.7396 9.77903C51.7188 9.2004 56.8651 9.13014 61.8667 9.36459C63.735 9.45217 68.2614 9.28075 69.593 11.4368C70.2838 12.5552 69.7782 14.5227 69.2378 15.559C67.9868 17.9578 65.4783 18.6068 62.962 18.7635C60.6718 18.9062 58.3437 18.6618 56.1681 17.905C55.1122 17.5378 52.6605 16.6721 52.2161 15.3962C52.1531 15.2154 52.1955 14.9318 52.3641 14.8411C53.2606 14.359 57.3464 14.1093 57.4706 14.1011C62.1764 13.7871 67.202 13.3922 71.8873 14.1751C73.3693 14.4227 75.0479 15.0226 75.0252 16.8245C75.0089 18.1141 74.1075 19.406 73.2268 20.2585C71.5286 21.9023 67.5383 23.418 65.641 21.2206C64.7301 20.1655 64.1365 17.5433 65.8927 16.9725C67.6 16.4177 69.9576 17.1368 70.7031 18.8523C71.6604 21.0549 70.728 24.2 69.223 25.9274C68.7481 26.4726 67.9377 27.1405 67.1508 27.0968C66.0085 27.0333 66.1491 25.3355 66.5143 24.6619C67.6573 22.5541 72.1811 20.7642 74.1593 22.6563C75.3622 23.8069 75.6114 26.5362 74.5811 27.859C73.6112 29.1044 71.5736 30.2016 69.9631 30.1385C68.7187 30.0897 68.4614 29.4526 68.0241 28.4141" stroke="#555555" stroke-width="2" stroke-linecap="round"/>
<circle cx="45.15" cy="13.4494" r="4.76757" fill="#333333" stroke="#919191" stroke-width="0.8"/>
<circle cx="46.873" cy="12.8752" r="1.14835" fill="#EBEBEB"/>
<circle cx="54.6817" cy="13.4494" r="4.76757" fill="#333333" stroke="#919191" stroke-width="0.8"/>
<circle cx="56.4042" cy="12.8752" r="1.14835" fill="#EBEBEB"/>
<path d="M64.9966 14.5977C64.9966 16.0452 63.8232 17.2186 62.3758 17.2186C60.9283 17.2186 59.7549 16.0452 59.7549 14.5977C59.7549 13.1503 60.9283 11.9769 62.3758 11.9769C63.8232 11.9769 64.9966 13.1503 64.9966 14.5977Z" fill="#333333" stroke="#919191" stroke-width="0.5"/>
<circle cx="63.0654" cy="13.7939" r="0.574174" fill="#EBEBEB"/>
<path d="M39.9629 14.5977C39.9629 16.0452 38.7895 17.2186 37.3421 17.2186C35.8946 17.2186 34.7212 16.0452 34.7212 14.5977C34.7212 13.1503 35.8946 11.9769 37.3421 11.9769C38.7895 11.9769 39.9629 13.1503 39.9629 14.5977Z" fill="#333333" stroke="#919191" stroke-width="0.5"/>
<circle cx="38.0307" cy="13.7939" r="0.574174" fill="#EBEBEB"/>
<path d="M75.3174 22.7808L77.6141 15.8907C78.1883 14.1682 80.485 11.8715 82.7816 14.7424C85.3482 17.9506 85.5292 18.6058 90.2483 30.546" stroke="#4A4A4A" stroke-width="3" stroke-linecap="round"/>
<path d="M76.4663 33.116L82.0483 18.8776C83.0053 17.1551 85.5263 13.2168 88.1686 14.8021C91.0394 16.5246 92.3441 19.7784 98.1071 32.9626" stroke="#535353" stroke-width="3" stroke-linecap="round"/>
<path d="M75.3174 33.116L78.7624 21.6325C80.485 18.1875 82.9279 16.649 85.0783 21.0583C86.7451 24.4759 88.6825 28.6799 91.9358 37.6101" stroke="#545454" stroke-width="3" stroke-linecap="round"/>
<path d="M72.4468 37.7094L75.8918 23.355C77.0402 20.4841 80.4852 20.4842 82.2077 23.9292L87.5821 41.2637" stroke="#595959" stroke-width="3" stroke-linecap="round"/>
<path d="M24.895 22.7808L22.5983 15.8907C22.0241 14.1682 19.7275 11.8715 17.4308 14.7424C14.8642 17.9506 14.6832 18.6058 9.96415 30.546" stroke="#4A4A4A" stroke-width="3" stroke-linecap="round"/>
<path d="M23.7466 33.116L18.1646 18.8776C17.2076 17.1551 14.6866 13.2168 12.0443 14.8021C9.17346 16.5246 7.86876 19.7784 2.10583 32.9626" stroke="#535353" stroke-width="3" stroke-linecap="round"/>
<path d="M24.895 33.116L21.45 21.6325C19.7275 18.1875 17.2845 16.649 15.1341 21.0583C13.4673 24.4759 11.5299 28.6799 8.27657 37.6101" stroke="#545454" stroke-width="3" stroke-linecap="round"/>
<path d="M27.7661 37.7094L24.3211 23.355C23.1727 20.4841 19.7277 20.4842 18.0051 23.9292L12.6308 41.2637" stroke="#595959" stroke-width="3" stroke-linecap="round"/>
</svg>
